{
    "asset" : {
        "generator" : "Khronos glTF Blender I/O v3.4.50",
        "version" : "2.0"
    },
    "scene" : 0,
    "scenes" : [
        {
            "name" : "Scene",
            "nodes" : [
                0,
                1,
                2,
                3,
                4,
                5
            ]
        }
    ],
    "nodes" : [
        {
            "mesh" : 0,
            "name" : "Plane.002",
            "scale" : [
                47.82594299316406,
                47.82594299316406,
                47.82594299316406
            ],
            "translation" : [
                2.8926806449890137,
                -5.274306774139404,
                -4.104869365692139
            ]
        },
        {
            "mesh" : 1,
            "name" : "Plane",
            "rotation" : [
                -0.08975289762020111,
                0.05315998196601868,
                -0.029475031420588493,
                0.9941074848175049
            ],
            "translation" : [
                -1.7886765003204346,
                1.313936471939087,
                -1.0927246809005737
            ]
        },
        {
            "mesh" : 2,
            "name" : "body-and-eye",
            "rotation" : [
                -0.08979925513267517,
                -0.25906842947006226,
                -0.31495505571365356,
                0.9086380004882812
            ],
            "scale" : [
                0.2771753668785095,
                0.2771753668785095,
                0.2771753668785095
            ],
            "translation" : [
                2.939753770828247,
                0.052364736795425415,
                0.27387043833732605
            ]
        },
        {
            "mesh" : 3,
            "name" : "eye",
            "scale" : [
                0.40231525897979736,
                0.40231525897979736,
                0.40231525897979736
            ],
            "translation" : [
                2.804173231124878,
                0.6472074389457703,
                -0.8647602796554565
            ]
        },
        {
            "mesh" : 4,
            "name" : "Plane.001",
            "rotation" : [
                -0.043145835399627686,
                -0.12535063922405243,
                0.9899610877037048,
                0.04901738092303276
            ],
            "scale" : [
                -0.9999999403953552,
                -1,
                -0.9999999403953552
            ],
            "translation" : [
                -1.702623963356018,
                1.2665083408355713,
                1.2142874002456665
            ]
        },
        {
            "mesh" : 5,
            "name" : "legs",
            "rotation" : [
                0,
                0.35039499402046204,
                0,
                0.936601996421814
            ],
            "scale" : [
                0.19053789973258972,
                0.19053789973258972,
                0.19053789973258972
            ],
            "translation" : [
                1.0344758033752441,
                0.012309074401855469,
                1.2040700912475586
            ]
        }
    ],
    "materials" : [
        {
            "doubleSided" : true,
            "name" : "Material.001",
            "pbrMetallicRoughness" : {
                "baseColorFactor" : [
                    1,
                    1,
                    1,
                    1
                ],
                "metallicFactor" : 0,
                "roughnessFactor" : 0.5
            }
        },
        {
            "doubleSided" : true,
            "name" : "Material",
            "pbrMetallicRoughness" : {
                "baseColorFactor" : [
                    0.800000011920929,
                    0.800000011920929,
                    0.800000011920929,
                    1
                ],
                "metallicFactor" : 0,
                "roughnessFactor" : 0.5
            }
        }
    ],
    "meshes" : [
        {
            "name" : "Plane.003",
            "primitives" : [
                {
                    "attributes" : {
                        "COLOR_0" : 0,
                        "POSITION" : 1,
                        "NORMAL" : 2
                    },
                    "indices" : 3,
                    "material" : 0
                }
            ]
        },
        {
            "name" : "Plane.002",
            "primitives" : [
                {
                    "attributes" : {
                        "COLOR_0" : 4,
                        "POSITION" : 5,
                        "NORMAL" : 6
                    },
                    "indices" : 7
                }
            ]
        },
        {
            "name" : "Cube.010",
            "primitives" : [
                {
                    "attributes" : {
                        "COLOR_0" : 8,
                        "POSITION" : 9,
                        "NORMAL" : 10
                    },
                    "indices" : 11,
                    "material" : 1
                }
            ]
        },
        {
            "name" : "Sphere.003",
            "primitives" : [
                {
                    "attributes" : {
                        "COLOR_0" : 12,
                        "POSITION" : 13,
                        "NORMAL" : 14
                    },
                    "indices" : 15
                }
            ]
        },
        {
            "name" : "Plane.001",
            "primitives" : [
                {
                    "attributes" : {
                        "POSITION" : 16,
                        "NORMAL" : 17
                    },
                    "indices" : 7
                }
            ]
        },
        {
            "name" : "Cube.003",
            "primitives" : [
                {
                    "attributes" : {
                        "COLOR_0" : 18,
                        "POSITION" : 19,
                        "NORMAL" : 20
                    },
                    "indices" : 21
                }
            ]
        }
    ],
    "accessors" : [
        {
            "bufferView" : 0,
            "componentType" : 5123,
            "count" : 4,
            "normalized" : true,
            "type" : "VEC4"
        },
        {
            "bufferView" : 1,
            "componentType" : 5126,
            "count" : 4,
            "max" : [
                1,
                0,
                1
            ],
            "min" : [
                -1.0000001192092896,
                0,
                -1.0000003576278687
            ],
            "type" : "VEC3"
        },
        {
            "bufferView" : 2,
            "componentType" : 5126,
            "count" : 4,
            "type" : "VEC3"
        },
        {
            "bufferView" : 3,
            "componentType" : 5123,
            "count" : 6,
            "type" : "SCALAR"
        },
        {
            "bufferView" : 4,
            "componentType" : 5123,
            "count" : 50,
            "normalized" : true,
            "type" : "VEC4"
        },
        {
            "bufferView" : 5,
            "componentType" : 5126,
            "count" : 50,
            "max" : [
                1,
                0.6216633915901184,
                7.409810543060303
            ],
            "min" : [
                -11.774060249328613,
                -3.6485755443573,
                -7.886315822601318
            ],
            "type" : "VEC3"
        },
        {
            "bufferView" : 6,
            "componentType" : 5126,
            "count" : 50,
            "type" : "VEC3"
        },
        {
            "bufferView" : 7,
            "componentType" : 5123,
            "count" : 192,
            "type" : "SCALAR"
        },
        {
            "bufferView" : 8,
            "componentType" : 5123,
            "count" : 16602,
            "normalized" : true,
            "type" : "VEC4"
        },
        {
            "bufferView" : 9,
            "componentType" : 5126,
            "count" : 16602,
            "max" : [
                7.757580280303955,
                4.3431172370910645,
                20.15658950805664
            ],
            "min" : [
                -29.923038482666016,
                -27.79826545715332,
                -7.078123092651367
            ],
            "type" : "VEC3"
        },
        {
            "bufferView" : 10,
            "componentType" : 5126,
            "count" : 16602,
            "type" : "VEC3"
        },
        {
            "bufferView" : 11,
            "componentType" : 5123,
            "count" : 26976,
            "type" : "SCALAR"
        },
        {
            "bufferView" : 12,
            "componentType" : 5123,
            "count" : 4032,
            "normalized" : true,
            "type" : "VEC4"
        },
        {
            "bufferView" : 13,
            "componentType" : 5126,
            "count" : 4032,
            "max" : [
                0.9999988079071045,
                1,
                0.9999990463256836
            ],
            "min" : [
                -0.9999993443489075,
                -1,
                -0.9999997019767761
            ],
            "type" : "VEC3"
        },
        {
            "bufferView" : 14,
            "componentType" : 5126,
            "count" : 4032,
            "type" : "VEC3"
        },
        {
            "bufferView" : 15,
            "componentType" : 5123,
            "count" : 5952,
            "type" : "SCALAR"
        },
        {
            "bufferView" : 16,
            "componentType" : 5126,
            "count" : 50,
            "max" : [
                1,
                0.6216633915901184,
                7.409810543060303
            ],
            "min" : [
                -11.774060249328613,
                -3.6485755443573,
                -7.886315822601318
            ],
            "type" : "VEC3"
        },
        {
            "bufferView" : 17,
            "componentType" : 5126,
            "count" : 50,
            "type" : "VEC3"
        },
        {
            "bufferView" : 18,
            "componentType" : 5123,
            "count" : 144,
            "normalized" : true,
            "type" : "VEC4"
        },
        {
            "bufferView" : 19,
            "componentType" : 5126,
            "count" : 144,
            "max" : [
                40.129085540771484,
                2.584937572479248,
                34.39091491699219
            ],
            "min" : [
                -50.82829284667969,
                -22.824356079101562,
                -60.26182556152344
            ],
            "type" : "VEC3"
        },
        {
            "bufferView" : 20,
            "componentType" : 5126,
            "count" : 144,
            "type" : "VEC3"
        },
        {
            "bufferView" : 21,
            "componentType" : 5123,
            "count" : 792,
            "type" : "SCALAR"
        }
    ],
    "bufferViews" : [
        {
            "buffer" : 0,
            "byteLength" : 32,
            "byteOffset" : 0,
            "target" : 34962
        },
        {
            "buffer" : 0,
            "byteLength" : 48,
            "byteOffset" : 32,
            "target" : 34962
        },
        {
            "buffer" : 0,
            "byteLength" : 48,
            "byteOffset" : 80,
            "target" : 34962
        },
        {
            "buffer" : 0,
            "byteLength" : 12,
            "byteOffset" : 128,
            "target" : 34963
        },
        {
            "buffer" : 0,
            "byteLength" : 400,
            "byteOffset" : 140,
            "target" : 34962
        },
        {
            "buffer" : 0,
            "byteLength" : 600,
            "byteOffset" : 540,
            "target" : 34962
        },
        {
            "buffer" : 0,
            "byteLength" : 600,
            "byteOffset" : 1140,
            "target" : 34962
        },
        {
            "buffer" : 0,
            "byteLength" : 384,
            "byteOffset" : 1740,
            "target" : 34963
        },
        {
            "buffer" : 0,
            "byteLength" : 132816,
            "byteOffset" : 2124,
            "target" : 34962
        },
        {
            "buffer" : 0,
            "byteLength" : 199224,
            "byteOffset" : 134940,
            "target" : 34962
        },
        {
            "buffer" : 0,
            "byteLength" : 199224,
            "byteOffset" : 334164,
            "target" : 34962
        },
        {
            "buffer" : 0,
            "byteLength" : 53952,
            "byteOffset" : 533388,
            "target" : 34963
        },
        {
            "buffer" : 0,
            "byteLength" : 32256,
            "byteOffset" : 587340,
            "target" : 34962
        },
        {
            "buffer" : 0,
            "byteLength" : 48384,
            "byteOffset" : 619596,
            "target" : 34962
        },
        {
            "buffer" : 0,
            "byteLength" : 48384,
            "byteOffset" : 667980,
            "target" : 34962
        },
        {
            "buffer" : 0,
            "byteLength" : 11904,
            "byteOffset" : 716364,
            "target" : 34963
        },
        {
            "buffer" : 0,
            "byteLength" : 600,
            "byteOffset" : 728268,
            "target" : 34962
        },
        {
            "buffer" : 0,
            "byteLength" : 600,
            "byteOffset" : 728868,
            "target" : 34962
        },
        {
            "buffer" : 0,
            "byteLength" : 1152,
            "byteOffset" : 729468,
            "target" : 34962
        },
        {
            "buffer" : 0,
            "byteLength" : 1728,
            "byteOffset" : 730620,
            "target" : 34962
        },
        {
            "buffer" : 0,
            "byteLength" : 1728,
            "byteOffset" : 732348,
            "target" : 34962
        },
        {
            "buffer" : 0,
            "byteLength" : 1584,
            "byteOffset" : 734076,
            "target" : 34963
        }
    ],
    "buffers" : [
        {
            "byteLength" : 735660,
            "uri" : "data:application/octet-stream;base64,"
        }
    ]
}
